<?xml version="1.0" encoding="utf-8"?>
<!-- Generator: Adobe Illustrator 19.2.1, SVG Export Plug-In . SVG Version: 6.00 Build 0)  -->
<svg version="1.1" id="Layer_1" xmlns="http://www.w3.org/2000/svg" xmlns:xlink="http://www.w3.org/1999/xlink" x="0px" y="0px"
	 viewBox="0 0 159.4 43.6" style="enable-background:new 0 0 159.4 43.6;" xml:space="preserve">
<style type="text/css">
	.st0{fill:#57585B;}
</style>
<g>
	<rect x="0.5" y="30" class="st0" width="2.4" height="13.3"/>
	<polygon class="st0" points="15.3,30 18.2,30 22.7,40.5 22.7,40.5 22.7,30 24.9,30 24.9,43.4 22,43.4 17.6,33 17.5,33 17.5,43.4 
		15.3,43.4 	"/>
	<polygon class="st0" points="39.2,32 36.3,32 36.3,30 44.7,30 44.7,32 41.7,32 41.7,43.4 39.2,43.4 	"/>
	<polygon class="st0" points="56,30 63,30 63,32 58.5,32 58.5,35.5 62.8,35.5 62.8,37.5 58.5,37.5 58.5,41.4 63.2,41.4 63.2,43.4 
		56,43.4 	"/>
	<path class="st0" d="M78.4,35.9c1.3,0,2.2-0.7,2.2-2c0-1.5-0.8-1.9-2.2-1.9h-1v3.9H78.4 M75,30h4.2c2.4,0,4,1.1,4,3.5
		c0,1.7-1.1,2.9-2.6,3.1v0.1c0.5,0.1,1.1,0.3,1.5,1.5l1.7,5.1h-2.6L79.9,39c-0.3-1.1-1-1.4-1.9-1.4h-0.6v5.7H75V30z"/>
	<rect x="95.3" y="30" class="st0" width="2.4" height="13.3"/>
	<path class="st0" d="M114.9,41.7c1.5,0,2.8-1.3,2.8-5c0-3.7-1.2-5-2.8-5c-1.5,0-2.8,1.3-2.8,5C112.1,40.4,113.4,41.7,114.9,41.7
		 M114.9,29.8c2.8,0,5.3,2.1,5.3,6.9c0,4.8-2.5,6.9-5.3,6.9c-2.8,0-5.3-2.1-5.3-6.9C109.6,31.9,112.1,29.8,114.9,29.8"/>
	<path class="st0" d="M135.4,35.9c1.3,0,2.2-0.7,2.2-2c0-1.5-0.8-1.9-2.2-1.9h-1v3.9H135.4 M132,30h4.2c2.4,0,4,1.1,4,3.5
		c0,1.7-1.1,2.9-2.6,3.1v0.1c0.5,0.1,1.1,0.3,1.5,1.5l1.7,5.1h-2.6l-1.3-4.3c-0.3-1.1-1-1.4-1.9-1.4h-0.6v5.7H132V30z"/>
	<path class="st0" d="M152.1,40.8c0.5,0.3,1.5,0.8,2.8,0.8c1.1,0,2-0.6,2-1.9c0-1-0.6-1.4-1.7-2l-1.2-0.7c-1.3-0.7-2.2-1.8-2.2-3.5
		c0-2.4,2-3.6,4.2-3.6c1.4,0,2.4,0.4,2.8,0.5l-0.1,2c-0.6-0.2-1.4-0.6-2.5-0.6c-1.2,0-1.9,0.6-1.9,1.6c0,1,0.7,1.4,1.4,1.8l1.4,0.8
		c1.6,0.9,2.3,1.7,2.3,3.6c0,2.7-1.9,4-4.5,4c-1.3,0-2.4-0.2-3-0.6L152.1,40.8"/>
	<path class="st0" d="M10.6,4.9l-0.2-1.5c-0.1-0.7-0.2-1-1.2-1.6C8.5,1.3,7.3,1.1,6.3,1.1c-1.9,0-4,1.3-4,3.9c0,1.8,1.1,3,4.5,3.4
		c3.8,0.4,6.2,1.4,6.2,4.4c0,4.6-4.1,6.8-8.2,6.8c-1.9,0-3.7-0.6-4.6-1c0.2-1.4,0.2-2.9,0.2-4.1h0.9l0.2,1.8
		c0.1,1.1,2.3,2.2,4.4,2.2c2.4,0,4.8-1.5,4.8-4.2c0-2.6-2-3.3-4.8-3.6C1.7,10.3,0,8.9,0,6.1C0,1.9,3.7,0,6.9,0
		c2.2,0,3.8,0.7,4.9,1.1c-0.3,1.4-0.4,2.5-0.4,3.8H10.6"/>
	<path class="st0" d="M20.6,4.5c0-1,0-1.9-0.1-2.7h-4.2c-0.8,0-1,0.2-1.1,0.9l-0.1,2.1h-0.8c0-1.5-0.1-2.9-0.2-4.4
		c1.9,0,3.9,0.1,5.8,0.1h3.9c1.9,0,3.9-0.1,5.8-0.1c-0.1,1.4-0.2,2.9-0.2,4.4h-0.8l-0.1-2.1c-0.1-0.6-0.3-0.9-1.1-0.9h-4.2
		c-0.1,0.8-0.1,1.7-0.1,2.7v11.4c0,1,0.1,1.7,0.2,2c0.2,0.3,0.5,0.4,1.1,0.4l1.3,0.1v0.8c-1.4-0.1-2.7-0.1-3.9-0.1
		c-1.3,0-2.6,0-4,0.1v-0.8l1.3-0.1c0.6,0,1-0.1,1.1-0.4c0.2-0.3,0.2-1,0.2-2V4.5"/>
	<path class="st0" d="M33.1,8.9c0,4.7,2.2,9.7,7.6,9.7c4.5,0,6.7-3.5,6.7-8.5c0-5.4-2.4-9-7.4-9C35.3,1.1,33.1,4.4,33.1,8.9
		 M30.2,9.9c0-5.6,3.9-9.9,10.2-9.9c5.8,0,9.9,3.2,9.9,9.2c0,5.8-4.5,10.5-10.5,10.5C34.3,19.7,30.2,15.9,30.2,9.9"/>
	<path class="st0" d="M56.7,15.9c0,1,0.1,1.7,0.2,2c0.2,0.3,0.5,0.4,1.1,0.4l1.3,0.1v0.8c-1.4-0.1-2.7-0.1-3.9-0.1
		c-1.3,0-2.6,0-4,0.1v-0.8l1.3-0.1c0.6,0,1-0.1,1.1-0.4c0.2-0.3,0.2-1,0.2-2V3.8c0-1-0.1-1.7-0.2-2c-0.2-0.3-0.5-0.4-1.1-0.4
		l-1.1-0.1V0.5c1.4,0,3,0.1,4.6,0.1c1.6,0,3.2-0.1,4.7-0.1c4.3-0.1,5.5,2.1,5.5,4.1c0,2.9-2.7,4.7-5.3,5.2l6.1,8
		c0.4,0.5,1,0.6,1.6,0.7v0.8c-0.7,0-1.3-0.1-1.9-0.1s-1.2,0.1-1.8,0.1c-0.4-0.5-0.8-1-1.1-1.5l-5-6.7c-0.4-0.6-0.9-1.1-1.4-1.7
		l0.2-0.3c0.7,0.1,1.6,0,2.4-0.1c1.9-0.3,3.5-1.8,3.5-3.8c0-2.9-2.2-3.7-4.3-3.7c-1.2,0-2,0.1-2.8,0.3V15.9"/>
	<path class="st0" d="M75,4.5c0-1,0-1.9-0.1-2.7h-4.2c-0.8,0-1,0.2-1.1,0.9l-0.1,2.1h-0.8c0-1.5-0.1-2.9-0.2-4.4
		c1.9,0,3.9,0.1,5.8,0.1h3.9c1.9,0,3.9-0.1,5.8-0.1c-0.1,1.4-0.2,2.9-0.2,4.4H83l-0.1-2.1c-0.1-0.6-0.3-0.9-1.1-0.9h-4.2
		c-0.1,0.8-0.1,1.7-0.1,2.7v11.4c0,1,0.1,1.7,0.2,2c0.2,0.3,0.5,0.4,1.1,0.4l1.3,0.1v0.8c-1.4-0.1-2.7-0.1-3.9-0.1
		c-1.3,0-2.6,0-4,0.1v-0.8l1.3-0.1c0.6,0,1-0.1,1.1-0.4c0.2-0.3,0.2-1,0.2-2V4.5"/>
	<path class="st0" d="M90.4,15.9c0,1,0.1,1.7,0.2,2c0.2,0.3,0.5,0.4,1.1,0.4l1.3,0.1v0.8c-1.4-0.1-2.7-0.1-3.9-0.1
		c-1.3,0-2.6,0-4,0.1v-0.8l1.3-0.1c0.6,0,1-0.1,1.1-0.4c0.2-0.3,0.2-1,0.2-2V3.8c0-1-0.1-1.7-0.2-2c-0.2-0.3-0.5-0.4-1.1-0.4
		l-1.3-0.1V0.5c1.5,0,3,0.1,4.6,0.1c1.8,0,4.3-0.1,5.8-0.1c1.2,0,2.4,0,3.5,0.1c-0.3,1.2-0.4,2.7-0.4,4.1h-0.9V2.9
		c0-0.4,0-0.6-0.2-0.7c-1.4-0.5-3.6-0.6-4.8-0.6c-0.7,0-1.5,0-2.3,0.2V9c0.9,0.1,1.8,0.1,3.1,0.1c1.6,0,2.6-0.1,2.9-0.3
		c0.1-0.1,0.2-0.4,0.2-0.7l0.1-1.4l0.8,0c0,1.1-0.1,2.1-0.1,3.1c0,1,0.1,2,0.1,3h-0.8l-0.1-1.6c0-0.4-0.1-0.6-0.2-0.7
		c-0.3-0.2-1.2-0.3-2.9-0.3c-1.3,0-2.3,0-3.1,0.1V15.9"/>
	<path class="st0" d="M103.1,8.9c0,4.7,2.2,9.7,7.6,9.7c4.5,0,6.7-3.5,6.7-8.5c0-5.4-2.4-9-7.4-9C105.2,1.1,103.1,4.4,103.1,8.9
		 M100.2,9.9c0-5.6,3.9-9.9,10.2-9.9c5.8,0,9.9,3.2,9.9,9.2c0,5.8-4.5,10.5-10.5,10.5C104.3,19.7,100.2,15.9,100.2,9.9"/>
	<path class="st0" d="M126.7,15.9c0,1,0.1,1.7,0.2,2c0.2,0.3,0.5,0.4,1.1,0.4l1.3,0.1v0.8c-1.4-0.1-2.7-0.1-3.9-0.1
		c-1.3,0-2.6,0-4,0.1v-0.8l1.3-0.1c0.6,0,1-0.1,1.1-0.4c0.2-0.3,0.2-1,0.2-2V3.8c0-1-0.1-1.7-0.2-2c-0.2-0.3-0.5-0.4-1.1-0.4
		l-1.1-0.1V0.5c1.4,0,3,0.1,4.6,0.1c1.6,0,3.2-0.1,4.7-0.1c4.3-0.1,5.5,2.1,5.5,4.1c0,2.9-2.7,4.7-5.3,5.2l6.1,8
		c0.4,0.5,1,0.6,1.6,0.7v0.8c-0.7,0-1.3-0.1-1.9-0.1s-1.2,0.1-1.8,0.1c-0.4-0.5-0.8-1-1.1-1.5l-5-6.7c-0.4-0.6-0.9-1.1-1.4-1.7
		l0.2-0.3c0.7,0.1,1.6,0,2.4-0.1c1.9-0.3,3.5-1.8,3.5-3.8c0-2.9-2.2-3.7-4.3-3.7c-1.2,0-2,0.1-2.8,0.3V15.9"/>
	<path class="st0" d="M144.5,17.8c0.8,0.2,2.2,0.2,3.1,0.2c1.4,0,2.9-0.1,4.4-0.8c3-1.4,4.3-4.2,4.3-7.8c0-6.7-3.8-7.9-8.7-7.9
		c-0.9,0-2.3,0-3.1,0.2V17.8 M142,3.8c0-1-0.1-1.7-0.2-2c-0.2-0.3-0.5-0.4-1.1-0.4l-1.1-0.1V0.5c1.8,0,3.5,0.1,5.3,0.1
		c1.8,0,3.5-0.1,4.7-0.1c5.5-0.1,9.7,3,9.7,8.2c0,4.4-2.5,8.2-5.8,9.6c-1.7,0.7-3.4,1-5.8,0.9c-1.1,0-2.3-0.1-3.5-0.1
		c-1.2,0-2.4,0.1-3.7,0.1v-0.6l0.8-0.4c0.5-0.2,0.7-0.9,0.7-1.6V3.8z"/>
</g>
</svg>
