<?xml version="1.0" encoding="utf-8"?>
<!-- Generator: Adobe Illustrator 19.2.1, SVG Export Plug-In . SVG Version: 6.00 Build 0)  -->
<svg version="1.1" id="Layer_1" xmlns="http://www.w3.org/2000/svg" xmlns:xlink="http://www.w3.org/1999/xlink" x="0px" y="0px"
	 viewBox="0 0 198.3 111" style="enable-background:new 0 0 198.3 111;" xml:space="preserve">
<style type="text/css">
	.st0{fill:#FFFFFF;}
	.st1{fill:#F1F1F1;}
	.st2{fill:#B0B0B0;}
	.st3{fill:#BBBBBA;}
	.st4{fill:#C5C5C4;}
	.st5{fill:#CECECE;}
	.st6{fill:#D8D8D8;}
	.st7{fill:#E2E2E1;}
</style>
<g>
	<rect x="0.5" y="97.8" class="st0" width="2.4" height="13"/>
	<polygon class="st0" points="14.9,97.8 17.7,97.8 22.1,108 22.1,108 22.1,97.8 24.3,97.8 24.3,110.8 21.4,110.8 17.1,100.7 
		17.1,100.7 17.1,110.8 14.9,110.8 	"/>
	<polygon class="st0" points="38.2,99.7 35.3,99.7 35.3,97.8 43.4,97.8 43.4,99.7 40.6,99.7 40.6,110.8 38.2,110.8 	"/>
	<polygon class="st0" points="54.5,97.8 61.3,97.8 61.3,99.7 56.9,99.7 56.9,103.2 61.1,103.2 61.1,105.1 56.9,105.1 56.9,108.9 
		61.5,108.9 61.5,110.8 54.5,110.8 	"/>
	<path class="st0" d="M76.3,103.5c1.3,0,2.1-0.7,2.1-2c0-1.5-0.8-1.9-2.1-1.9h-1v3.8H76.3 M73,97.8H77c2.3,0,3.9,1,3.9,3.4
		c0,1.7-1.1,2.8-2.5,3.1v0.1c0.5,0.1,1,0.3,1.4,1.5l1.7,4.9H79l-1.3-4.2c-0.3-1-0.9-1.4-1.8-1.4h-0.5v5.6H73V97.8z"/>
	<rect x="92.7" y="97.8" class="st0" width="2.4" height="13"/>
	<path class="st0" d="M111.8,109.2c1.5,0,2.7-1.3,2.7-4.9c0-3.6-1.2-4.9-2.7-4.9c-1.5,0-2.7,1.3-2.7,4.9
		C109.1,107.9,110.3,109.2,111.8,109.2 M111.8,97.6c2.7,0,5.2,2,5.2,6.7c0,4.7-2.5,6.7-5.2,6.7c-2.7,0-5.2-2-5.2-6.7
		C106.6,99.7,109.1,97.6,111.8,97.6"/>
	<path class="st0" d="M131.7,103.5c1.3,0,2.1-0.7,2.1-2c0-1.5-0.8-1.9-2.1-1.9h-1v3.8H131.7 M128.4,97.8h4.1c2.3,0,3.9,1,3.9,3.4
		c0,1.7-1.1,2.8-2.5,3.1v0.1c0.5,0.1,1,0.3,1.4,1.5l1.7,4.9h-2.5l-1.3-4.2c-0.3-1-0.9-1.4-1.8-1.4h-0.5v5.6h-2.4V97.8z"/>
	<path class="st0" d="M148,108.3c0.5,0.3,1.5,0.8,2.8,0.8c1,0,2-0.6,2-1.9c0-0.9-0.5-1.3-1.7-2l-1.2-0.7c-1.3-0.7-2.1-1.7-2.1-3.4
		c0-2.3,1.9-3.5,4.1-3.5c1.4,0,2.3,0.4,2.7,0.5l-0.1,2c-0.6-0.2-1.3-0.6-2.4-0.6c-1.2,0-1.8,0.6-1.8,1.5c0,1,0.7,1.3,1.4,1.7
		l1.4,0.8c1.5,0.9,2.3,1.7,2.3,3.5c0,2.6-1.9,3.9-4.4,3.9c-1.3,0-2.3-0.2-3-0.6L148,108.3"/>
	<path class="st0" d="M10.3,73.4l-0.2-1.5c-0.1-0.7-0.2-1-1.2-1.6c-0.7-0.4-1.8-0.6-2.9-0.6c-1.8,0-3.9,1.2-3.9,3.8
		c0,1.8,1.1,2.9,4.3,3.3c3.7,0.4,6.1,1.3,6.1,4.3c0,4.5-4,6.7-7.9,6.7c-1.8,0-3.6-0.6-4.5-1c0.2-1.4,0.2-2.8,0.2-4h0.8l0.2,1.8
		c0.1,1.1,2.2,2.1,4.3,2.1c2.4,0,4.7-1.4,4.7-4.1c0-2.5-1.9-3.2-4.6-3.5C1.6,78.6,0,77.3,0,74.6c0-4.1,3.6-5.9,6.7-5.9
		c2.1,0,3.7,0.7,4.8,1.1c-0.3,1.3-0.4,2.5-0.4,3.7H10.3"/>
	<path class="st0" d="M20,73c0-1,0-1.8-0.1-2.6h-4.1c-0.8,0-1,0.2-1.1,0.9l-0.1,2.1h-0.8c0-1.4-0.1-2.9-0.2-4.2
		c1.9,0,3.8,0.1,5.7,0.1h3.8c1.9,0,3.8-0.1,5.7-0.1c-0.1,1.4-0.2,2.8-0.2,4.2h-0.8l-0.1-2.1c-0.1-0.6-0.3-0.9-1.1-0.9h-4.1
		c-0.1,0.8-0.1,1.6-0.1,2.6v11.1c0,1,0.1,1.7,0.2,2c0.2,0.3,0.5,0.4,1.1,0.4l1.3,0.1v0.8c-1.4-0.1-2.6-0.1-3.8-0.1
		c-1.3,0-2.5,0-3.9,0.1v-0.8l1.3-0.1c0.6,0,0.9-0.1,1.1-0.4c0.2-0.3,0.2-1,0.2-2V73"/>
	<path class="st0" d="M32.2,77.2c0,4.6,2.2,9.4,7.4,9.4c4.4,0,6.5-3.4,6.5-8.3c0-5.2-2.3-8.7-7.2-8.7C34.3,69.7,32.2,72.9,32.2,77.2
		 M29.4,78.2c0-5.4,3.8-9.6,9.9-9.6c5.6,0,9.6,3.2,9.6,9c0,5.7-4.4,10.2-10.2,10.2C33.4,87.8,29.4,84.1,29.4,78.2"/>
	<path class="st0" d="M55.2,84.1c0,1,0.1,1.7,0.2,2c0.2,0.3,0.5,0.4,1.1,0.4l1.3,0.1v0.8c-1.4-0.1-2.6-0.1-3.8-0.1
		c-1.3,0-2.5,0-3.9,0.1v-0.8l1.3-0.1c0.6,0,0.9-0.1,1.1-0.4c0.2-0.3,0.2-1,0.2-2V72.3c0-1-0.1-1.7-0.2-2c-0.2-0.3-0.5-0.3-1.1-0.4
		l-1.1-0.1V69c1.4,0,2.9,0.1,4.5,0.1c1.6,0,3.1-0.1,4.6-0.1c4.2-0.1,5.3,2.1,5.3,3.9c0,2.9-2.6,4.6-5.1,5.1l6,7.8
		c0.4,0.5,1,0.6,1.6,0.7v0.8c-0.7,0-1.3-0.1-1.9-0.1s-1.2,0.1-1.8,0.1c-0.3-0.5-0.7-0.9-1.1-1.4l-4.8-6.5c-0.4-0.6-0.9-1.1-1.4-1.6
		l0.2-0.3c0.7,0.1,1.5,0,2.3-0.1c1.8-0.3,3.4-1.7,3.4-3.7c0-2.8-2.1-3.6-4.2-3.6c-1.2,0-1.9,0.1-2.7,0.3V84.1"/>
	<path class="st0" d="M72.9,73c0-1,0-1.8-0.1-2.6h-4.1c-0.8,0-1,0.2-1.1,0.9l-0.1,2.1h-0.8c0-1.4-0.1-2.9-0.2-4.2
		c1.9,0,3.8,0.1,5.7,0.1h3.8c1.9,0,3.8-0.1,5.7-0.1c-0.1,1.4-0.2,2.8-0.2,4.2h-0.8l-0.1-2.1c-0.1-0.6-0.3-0.9-1.1-0.9h-4.1
		c-0.1,0.8-0.1,1.6-0.1,2.6v11.1c0,1,0.1,1.7,0.2,2c0.2,0.3,0.5,0.4,1.1,0.4l1.3,0.1v0.8c-1.4-0.1-2.6-0.1-3.8-0.1
		c-1.3,0-2.5,0-3.9,0.1v-0.8l1.3-0.1c0.6,0,0.9-0.1,1.1-0.4c0.2-0.3,0.2-1,0.2-2V73"/>
	<path class="st0" d="M87.9,84.1c0,1,0.1,1.7,0.2,2c0.2,0.3,0.5,0.4,1.1,0.4l1.3,0.1v0.8c-1.4-0.1-2.6-0.1-3.8-0.1
		c-1.3,0-2.5,0-3.9,0.1v-0.8l1.3-0.1c0.6,0,0.9-0.1,1.1-0.4c0.2-0.3,0.2-1,0.2-2V72.3c0-1-0.1-1.7-0.2-2c-0.2-0.3-0.5-0.4-1.1-0.4
		l-1.3-0.1V69c1.4,0,2.9,0.1,4.4,0.1c1.8,0,4.2-0.1,5.7-0.1c1.2,0,2.4,0,3.4,0.1c-0.3,1.2-0.4,2.7-0.4,4H95v-1.7
		c0-0.3,0-0.6-0.2-0.7c-1.4-0.5-3.5-0.6-4.6-0.6c-0.7,0-1.5,0-2.2,0.2v7c0.8,0.1,1.8,0.1,3.1,0.1c1.6,0,2.5-0.1,2.8-0.3
		c0.1-0.1,0.2-0.3,0.2-0.7l0.1-1.4l0.8,0c0,1.1-0.1,2.1-0.1,3.1c0,1,0.1,2,0.1,2.9h-0.8L94,79.5c0-0.3-0.1-0.6-0.2-0.7
		c-0.3-0.2-1.2-0.3-2.8-0.3c-1.3,0-2.2,0-3.1,0.1V84.1"/>
	<path class="st0" d="M100.3,77.2c0,4.6,2.2,9.4,7.4,9.4c4.4,0,6.5-3.4,6.5-8.3c0-5.2-2.3-8.7-7.2-8.7
		C102.4,69.7,100.3,72.9,100.3,77.2 M97.5,78.2c0-5.4,3.8-9.6,9.9-9.6c5.6,0,9.6,3.2,9.6,9c0,5.7-4.4,10.2-10.2,10.2
		C101.5,87.8,97.5,84.1,97.5,78.2"/>
	<path class="st0" d="M123.3,84.1c0,1,0.1,1.7,0.2,2c0.2,0.3,0.5,0.4,1.1,0.4l1.3,0.1v0.8c-1.4-0.1-2.6-0.1-3.8-0.1
		c-1.3,0-2.5,0-3.9,0.1v-0.8l1.3-0.1c0.6,0,0.9-0.1,1.1-0.4c0.2-0.3,0.2-1,0.2-2V72.3c0-1-0.1-1.7-0.2-2c-0.2-0.3-0.5-0.3-1.1-0.4
		l-1.1-0.1V69c1.4,0,2.9,0.1,4.5,0.1c1.6,0,3.1-0.1,4.6-0.1c4.2-0.1,5.3,2.1,5.3,3.9c0,2.9-2.6,4.6-5.1,5.1l6,7.8
		c0.4,0.5,1,0.6,1.6,0.7v0.8c-0.7,0-1.3-0.1-1.9-0.1c-0.6,0-1.2,0.1-1.8,0.1c-0.3-0.5-0.7-0.9-1.1-1.4l-4.8-6.5
		c-0.4-0.6-0.9-1.1-1.4-1.6l0.2-0.3c0.7,0.1,1.5,0,2.3-0.1c1.8-0.3,3.4-1.7,3.4-3.7c0-2.8-2.1-3.6-4.2-3.6c-1.2,0-1.9,0.1-2.7,0.3
		V84.1"/>
	<path class="st0" d="M140.6,86c0.7,0.2,2.1,0.2,3,0.2c1.3,0,2.8-0.1,4.3-0.8c2.9-1.3,4.2-4.1,4.2-7.6c0-6.5-3.7-7.7-8.5-7.7
		c-0.9,0-2.3,0-3,0.2V86 M138.1,72.3c0-1-0.1-1.7-0.2-2c-0.2-0.3-0.5-0.3-1.1-0.4l-1.1-0.1V69c1.8,0,3.4,0.1,5.2,0.1
		c1.7,0,3.4-0.1,4.6-0.1c5.4-0.1,9.4,2.9,9.4,8c0,4.3-2.5,8-5.7,9.3c-1.6,0.7-3.3,1-5.6,0.9c-1.1,0-2.2-0.1-3.4-0.1
		c-1.2,0-2.3,0.1-3.6,0.1v-0.6l0.8-0.4c0.4-0.2,0.7-0.8,0.7-1.6V72.3z"/>
</g>
<g>
	<g>
		<path class="st1" d="M142,51.8c-1.5-3.4,0.1-7.4,3.6-8.8c3.4-1.5,7.4,0.1,8.8,3.6c1.5,3.4-0.1,7.4-3.6,8.8
			C147.4,56.8,143.4,55.2,142,51.8"/>
		<path class="st2" d="M156.1,58.1c-1.2-2.8,0.1-6,2.9-7.2c2.8-1.2,6,0.1,7.2,2.9c1.2,2.8-0.1,6-2.9,7.2
			C160.5,62.2,157.3,60.9,156.1,58.1"/>
		<path class="st3" d="M165.1,65.3c-1-2.4,0.1-5.2,2.5-6.2c2.4-1,5.2,0.1,6.2,2.5c1,2.4-0.1,5.2-2.5,6.2
			C168.9,68.9,166.1,67.7,165.1,65.3"/>
		<path class="st4" d="M171.2,73.4c-0.9-2.1,0.1-4.4,2.1-5.3c2.1-0.9,4.4,0.1,5.3,2.1c0.9,2.1-0.1,4.4-2.1,5.3
			C174.5,76.5,172.1,75.5,171.2,73.4"/>
		<path class="st5" d="M174.5,81.5c-0.8-1.9,0.1-4.1,2-4.9c1.9-0.8,4.1,0.1,4.9,2c0.8,1.9-0.1,4.1-2,4.9
			C177.5,84.3,175.3,83.4,174.5,81.5"/>
		<path class="st6" d="M176,89.3c-0.7-1.7,0.1-3.6,1.7-4.3c1.7-0.7,3.6,0.1,4.3,1.7c0.7,1.7-0.1,3.6-1.7,4.3
			C178.7,91.7,176.7,91,176,89.3"/>
		<path class="st2" d="M157.9,42.4c-2.8,1.1-6-0.3-7.1-3.2c-1.1-2.8,0.3-6,3.2-7.1c2.8-1.1,6,0.3,7.1,3.2
			C162.1,38.1,160.7,41.3,157.9,42.4"/>
		<path class="st3" d="M165.4,33.6c-2.4,0.9-5.2-0.3-6.1-2.7c-0.9-2.4,0.3-5.2,2.7-6.1c2.4-0.9,5.2,0.3,6.1,2.7
			C169.1,29.9,167.9,32.7,165.4,33.6"/>
		<path class="st4" d="M173.8,27.8c-2.1,0.8-4.4-0.2-5.2-2.3c-0.8-2.1,0.2-4.4,2.3-5.2c2.1-0.8,4.4,0.2,5.2,2.3
			C176.9,24.6,175.8,27,173.8,27.8"/>
		<path class="st5" d="M181.9,24.8c-1.9,0.7-4.1-0.2-4.8-2.1c-0.7-1.9,0.2-4.1,2.1-4.8c1.9-0.7,4.1,0.2,4.8,2.1
			C184.8,22,183.9,24.1,181.9,24.8"/>
		<path class="st6" d="M189.8,23.6c-1.7,0.7-3.6-0.2-4.3-1.9c-0.7-1.7,0.2-3.6,1.9-4.3c1.7-0.7,3.6,0.2,4.3,1.9
			C192.3,21,191.5,22.9,189.8,23.6"/>
		<path class="st2" d="M140.3,40.6c1.1,2.8-0.3,6-3.2,7.1c-2.8,1.1-6-0.3-7.1-3.2c-1.1-2.8,0.3-6,3.2-7.1
			C136,36.4,139.2,37.8,140.3,40.6"/>
		<path class="st3" d="M131.6,33.1c0.9,2.4-0.3,5.2-2.7,6.1c-2.4,0.9-5.2-0.3-6.1-2.7c-0.9-2.4,0.3-5.2,2.7-6.1
			C127.9,29.4,130.6,30.6,131.6,33.1"/>
		<path class="st4" d="M125.7,24.8c0.8,2.1-0.2,4.4-2.3,5.2c-2.1,0.8-4.4-0.2-5.2-2.3c-0.8-2.1,0.2-4.4,2.3-5.2
			C122.6,21.6,124.9,22.7,125.7,24.8"/>
		<path class="st5" d="M122.8,16.6c0.7,1.9-0.2,4.1-2.1,4.8c-1.9,0.7-4.1-0.2-4.8-2.1c-0.7-1.9,0.2-4.1,2.1-4.8
			C119.9,13.7,122.1,14.6,122.8,16.6"/>
	</g>
	<g>
		<path class="st6" d="M121.5,8.7c0.7,1.7-0.2,3.6-1.9,4.3c-1.7,0.7-3.6-0.2-4.3-1.9c-0.7-1.7,0.2-3.6,1.9-4.3
			C119,6.2,120.9,7,121.5,8.7"/>
		<path class="st7" d="M122.4,1.8c0.5,1.4-0.2,3-1.6,3.6c-1.4,0.5-3-0.2-3.6-1.6c-0.5-1.4,0.2-3,1.6-3.6
			C120.2-0.4,121.8,0.3,122.4,1.8"/>
		<path class="st7" d="M198.1,20.7c0.5,1.4-0.2,3-1.6,3.6c-1.4,0.5-3-0.2-3.6-1.6c-0.5-1.4,0.2-3,1.6-3.6
			C196,18.6,197.6,19.3,198.1,20.7"/>
		<path class="st7" d="M179.7,94c0.5,1.4-0.2,3-1.6,3.6c-1.4,0.5-3-0.2-3.6-1.6c-0.5-1.4,0.2-3,1.6-3.6
			C177.5,91.9,179.1,92.6,179.7,94"/>
	</g>
</g>
</svg>
