<?xml version="1.0" encoding="utf-8"?>
<!-- Generator: Adobe Illustrator 19.2.1, SVG Export Plug-In . SVG Version: 6.00 Build 0)  -->
<svg version="1.1" id="Layer_1" xmlns="http://www.w3.org/2000/svg" xmlns:xlink="http://www.w3.org/1999/xlink" x="0px" y="0px"
	 viewBox="0 0 14.2 14.2" style="enable-background:new 0 0 14.2 14.2;" xml:space="preserve">
<style type="text/css">
	.st0{fill:#F1F1F1;}
</style>
<g>
	<path class="st0" d="M8.6,9.2c-2.7,2.1-6,1.2-7.6-0.9c-1.6-2.1-1.4-5.1,0.5-6.9c1.9-1.8,4.9-2,6.9-0.3c2.1,1.7,2.7,4.9,0.7,7.4
		c0.1,0.1,0.2,0.2,0.3,0.3c1.5,1.5,2.9,2.9,4.4,4.4c0.1,0.1,0.2,0.2,0.3,0.3c0,0.2,0,0.4-0.1,0.5c-0.1,0.1-0.4,0.1-0.5,0
		c-0.1,0-0.2-0.2-0.3-0.2c-1.5-1.5-2.9-2.9-4.4-4.4C8.8,9.4,8.7,9.3,8.6,9.2z M5.2,0.9c-2.4,0-4.3,1.9-4.4,4.3
		c0,2.4,1.9,4.4,4.3,4.4c2.4,0,4.3-2,4.3-4.3C9.6,2.8,7.6,0.9,5.2,0.9z"/>
</g>
</svg>
