<?xml version="1.0" standalone="no"?>
<!DOCTYPE svg PUBLIC "-//W3C//DTD SVG 20010904//EN"
 "http://www.w3.org/TR/2001/REC-SVG-20010904/DTD/svg10.dtd">
<svg version="1.0" xmlns="http://www.w3.org/2000/svg"
 width="260.000000pt" height="260.000000pt" viewBox="0 0 260.000000 260.000000"
 preserveAspectRatio="xMidYMid meet">
<metadata>
Created by potrace 1.11, written by Peter Selinger 2001-2013
</metadata>
<g transform="translate(0.000000,260.000000) scale(0.100000,-0.100000)"
fill="#000000" stroke="none">
<path d="M287 2588 c-41 -32 -38 -94 6 -123 58 -37 127 23 104 91 -13 37 -78
56 -110 32z"/>
<path d="M274 2423 c-64 -12 -87 -100 -39 -148 62 -63 163 2 141 90 -6 22 -61
68 -76 64 -3 -1 -15 -4 -26 -6z"/>
<path d="M284 2220 c-32 -12 -64 -59 -64 -92 0 -82 84 -129 152 -84 93 61 15
215 -88 176z"/>
<path d="M2134 2142 c-24 -4 -61 -39 -64 -62 -9 -63 27 -110 84 -110 41 0 86
41 86 78 0 58 -51 103 -106 94z"/>
<path d="M1883 2112 c-24 -18 -44 -67 -40 -92 10 -53 70 -95 118 -83 39 9 79
53 79 85 0 36 -24 84 -49 98 -30 15 -83 12 -108 -8z"/>
<path d="M2304 2090 c-36 -15 -49 -61 -29 -101 24 -46 72 -53 110 -14 14 13
25 35 25 48 0 50 -59 87 -106 67z"/>
<path d="M1673 2060 c-34 -14 -61 -65 -57 -107 10 -104 156 -133 200 -39 45
93 -46 185 -143 146z"/>
<path d="M331 1996 c-69 -38 -64 -160 7 -187 44 -17 56 -18 89 -4 48 20 68 61
64 128 -1 11 -15 32 -32 48 -35 32 -86 38 -128 15z"/>
<path d="M1450 1942 c-75 -36 -100 -103 -64 -177 34 -73 142 -87 196 -26 50
56 49 127 -1 175 -30 29 -99 44 -131 28z"/>
<path d="M471 1789 c-79 -35 -96 -144 -32 -201 41 -37 76 -44 125 -27 99 35
115 170 25 223 -42 25 -72 26 -118 5z"/>
<path d="M1222 1744 c-99 -51 -108 -190 -16 -253 69 -47 173 -20 208 53 32 68
11 152 -47 190 -37 25 -107 29 -145 10z"/>
<path d="M695 1609 c-64 -17 -110 -87 -103 -154 19 -165 252 -176 287 -14 8
33 -9 97 -32 127 -27 35 -101 54 -152 41z"/>
<path d="M1037 1465 c-131 -33 -176 -187 -86 -290 101 -115 292 -49 307 105
12 122 -100 216 -221 185z"/>
<path d="M1368 1246 c-57 -29 -82 -65 -84 -125 -4 -85 61 -151 149 -151 70 0
148 85 140 153 -10 73 -51 120 -122 136 -34 7 -48 5 -83 -13z"/>
<path d="M1593 1030 c-29 -12 -67 -64 -71 -100 -8 -76 59 -145 134 -137 72 7
114 53 114 123 0 90 -91 148 -177 114z"/>
<path d="M1743 790 c-33 -14 -57 -57 -56 -103 1 -33 7 -47 32 -69 17 -15 40
-29 51 -29 11 -1 26 -2 33 -3 6 0 26 8 44 19 115 68 21 235 -104 185z"/>
<path d="M1829 562 c-85 -43 -74 -156 18 -181 45 -13 86 6 108 49 19 36 19 53
0 90 -26 51 -75 67 -126 42z"/>
<path d="M1836 319 c-36 -43 -31 -92 13 -126 39 -30 114 -7 131 40 15 43 13
52 -16 86 -37 44 -91 44 -128 0z"/>
<path d="M1812 143 c-7 -3 -19 -18 -27 -33 -18 -35 -7 -72 29 -95 45 -29 106
5 106 60 0 55 -54 90 -108 68z"/>
</g>
</svg>
